<?xml version="1.0" encoding="UTF-8"?>
<svg width="700pt" height="700pt" version="1.1" viewBox="0 0 700 700" xmlns="http://www.w3.org/2000/svg" xmlns:xlink="http://www.w3.org/1999/xlink">
 <g>
  <circle cx="350" cy="325" r="325" fill="white"/>
  <path d="m433.96 395.88c-3.2422-10.109-7.2422-18.77-11.039-26.012-3.7969 7.2422-7.7969 15.902-11.039 26.012-0.86719 2.6992-1.6289 5.3125-2.3203 7.8867-2.0039-1.8633-4.1758-3.7852-6.3516-5.5234-7.1797-5.7461-17.344-12.609-17.344-12.609l-6.1836 23.18c1.0078-6.9375 2.0156-13.871 3.0312-20.809 3.125-18.199 5.8398-37.676 7.8867-58.336 2.5742-26.105 3.7344-50.641 3.9414-73.309 1.6758-21.719 1.4883-63.516-19.707-105.63-7.4297-14.766-15.254-26.82-23.223-36.395l0.36328-57.805c1.8555-0.77344 3.1602-2.5977 3.1602-4.7305 0-2.8281-2.2969-5.125-5.125-5.125-2.8281 0-5.125 2.2969-5.125 5.125 0 2.1289 1.3008 3.9531 3.1523 4.7266l-0.35156 56.785c-8.332 9.7773-18.742 23.695-26.441 38.992-21.203 42.117-21.379 82.336-19.707 104.05 0.20312 22.676 1.3594 47.207 3.9414 73.309 2.0391 20.652 4.7539 40.137 7.8867 58.336 1.0078 6.9375 2.0156 13.871 3.0312 20.809l-6.1836-23.18s-10.164 6.8711-17.344 12.609c-1.0742 0.86328-2.1523 1.7656-3.2031 2.6836-0.47656-1.6562-0.97266-3.332-1.5273-5.0469-3.2422-10.109-7.2422-18.77-11.039-26.012-3.7969 7.2422-7.7969 15.902-11.039 26.012-6.3164 19.691-7.6484 35.234-8.668 57.547 0 27.59 0.78906 38.629 6.3047 59.91h13.402 13.402c5.5156-21.285 6.3047-32.316 6.3047-59.91-0.21875-4.7539-0.45313-9.1836-0.74609-13.43 1.6523-2.1602 3.4648-4.2734 5.4727-6.2773 8.8984-8.8984 14.105-11.523 16.508-12.297l-3.1094 21.758c0 1.7422 1.4102 3.1523 3.1523 3.1523h59.121c1.7422 0 3.1523-1.4102 3.1523-3.1523l-2.3281-21.758c2.3984 0.76562 7.6094 3.3867 16.52 12.297 3.5938 3.5938 6.5898 7.5273 9.0898 11.473-0.15234 2.6484-0.28516 5.3867-0.41406 8.2305 0 27.59 0.78906 38.629 6.3047 59.91h13.402 13.402c5.5156-21.285 6.3047-32.316 6.3047-59.91-1.0312-22.301-2.3711-37.848-8.6797-57.539z"/>
 </g>
</svg>